<svg version="1.1" id="Layer_1" xmlns="http://www.w3.org/2000/svg" xmlns:xlink="http://www.w3.org/1999/xlink" x="0px" y="0px"
	 width="100%" viewBox="0 0 1024 1024" enable-background="new 0 0 1024 1024" xml:space="preserve">
<path fill="#000000" opacity="1.000000" stroke="none" 
	d="
M580.739746,509.640961 
	C597.737976,506.689636 614.199707,503.375244 629.980164,497.345642 
	C635.630920,495.186523 640.879578,492.383453 645.303833,488.161285 
	C648.212585,485.385315 648.563232,482.441437 645.993652,479.342621 
	C642.028931,474.561340 636.512756,472.129700 630.989380,469.769135 
	C629.123596,468.971771 627.763855,470.226227 626.584778,471.387512 
	C606.879211,490.795929 581.774414,496.343872 555.577698,499.517822 
	C536.113464,501.876099 516.688660,501.623688 497.232117,500.083740 
	C494.131378,499.838318 490.559540,500.502319 487.724548,497.300812 
	C491.105255,494.801331 494.857269,495.134247 498.328491,494.852661 
	C520.044128,493.090912 541.760010,491.330597 563.104492,486.698792 
	C577.553162,483.563354 591.093201,478.189850 603.301025,469.683929 
	C623.105957,455.884766 632.126282,432.582947 625.555542,411.197052 
	C621.521545,398.067596 612.324768,389.044006 600.787170,382.281281 
	C585.795837,373.494141 569.113281,369.477631 552.477478,365.151794 
	C533.156128,360.127655 513.313782,357.212585 494.336334,350.884247 
	C480.812439,346.374451 468.094482,340.244110 457.487610,330.401398 
	C434.328827,308.911011 433.713226,275.015198 455.782776,252.362366 
	C462.899658,245.057373 471.289520,239.879868 480.184509,235.257812 
	C482.049652,234.288651 484.319733,233.838608 485.904236,230.887756 
	C471.229736,221.385468 463.054993,208.168427 465.715515,190.005524 
	C468.353058,171.999573 479.923157,161.800888 497.308533,156.807114 
	C492.395569,148.759247 485.545166,144.365189 480.022583,138.719315 
	C478.185333,136.841064 474.009186,135.477844 475.936584,132.377853 
	C477.755615,129.452225 481.360718,131.497284 484.184143,132.402191 
	C495.117249,135.906326 502.747131,143.265121 508.097961,153.137497 
	C509.481140,155.689499 511.161530,157.214005 514.023254,157.879105 
	C542.475220,164.491882 547.213013,197.051559 537.983276,214.321533 
	C535.213684,219.503845 535.909119,220.574478 541.889465,220.847092 
	C544.885925,220.983658 547.920227,220.893356 550.783630,221.933517 
	C553.823730,223.037872 555.083374,224.663788 551.916260,227.175247 
	C551.785706,227.278809 551.647461,227.373276 551.522339,227.482895 
	C540.437927,237.194992 540.070679,247.309586 550.408020,257.995575 
	C557.217957,265.035156 565.917175,269.447144 573.892883,274.860443 
	C584.209106,281.862274 593.875000,289.450500 598.226868,301.790833 
	C601.670349,311.555450 600.922607,321.017395 594.439209,329.244080 
	C587.539795,337.998657 577.894409,341.608917 567.227356,338.872742 
	C544.837708,333.129608 524.655151,323.383209 510.990082,303.503143 
	C506.747772,297.331390 504.188812,290.545074 503.307617,283.150299 
	C502.674591,277.838379 504.345886,274.088959 507.824951,272.264587 
	C509.376312,272.961426 509.237854,274.381958 509.231842,275.694702 
	C509.174622,288.230713 515.453064,297.757050 524.518372,305.326965 
	C537.223328,315.936157 551.962708,322.810150 568.205078,326.283112 
	C573.668945,327.451447 578.720825,326.047180 582.455688,322.146942 
	C586.464844,317.960297 586.645386,312.485687 585.015320,307.106201 
	C582.656311,299.320770 576.765198,294.403229 570.508057,289.833923 
	C563.244751,284.529816 555.851135,279.390778 548.776123,273.845764 
	C541.452820,268.106171 535.756042,261.121613 532.961121,251.926697 
	C530.629211,244.254745 532.230164,237.185913 535.498169,230.038010 
	C531.933411,228.440170 528.814697,229.843277 525.990295,230.588684 
	C512.444824,234.163605 499.174225,238.535675 486.961914,245.653976 
	C477.417664,251.217102 469.635071,258.713318 463.454529,267.705536 
	C450.650330,286.334595 455.332947,307.070435 475.165955,321.066101 
	C486.552216,329.101074 499.593506,333.144684 512.924316,336.306976 
	C527.474426,339.758484 542.089844,342.940582 556.705627,346.107422 
	C570.717957,349.143433 584.478821,353.063538 597.689392,358.596802 
	C611.683167,364.458069 624.407043,372.367859 633.425476,384.985474 
	C648.672241,406.317169 649.800049,429.002319 639.344238,452.636780 
	C638.670959,454.158661 637.876526,455.627869 637.115784,457.109955 
	C634.075378,463.032959 634.253479,463.508911 640.205933,466.614655 
	C642.564575,467.845337 644.929199,469.105011 647.131592,470.588287 
	C657.724426,477.722198 658.258484,488.279419 648.542969,496.707214 
	C639.417603,504.623047 628.504517,509.183624 617.317261,513.112915 
	C597.576111,520.046570 577.071594,523.221741 556.336792,525.423462 
	C536.935669,527.483582 517.500854,528.662476 498.017792,528.172241 
	C460.801514,527.235840 423.967834,523.534668 388.502502,511.177338 
	C380.115082,508.254852 372.276978,504.248383 364.973389,499.199463 
	C361.782898,496.993927 359.083282,494.306030 357.111755,490.935364 
	C353.893890,485.433685 354.182678,480.092804 358.106415,475.119659 
	C359.231964,473.693115 360.420074,471.940430 361.977203,471.291229 
	C371.505463,467.318756 371.430817,460.795288 368.562317,452.164276 
	C362.495697,433.910675 374.800751,408.943481 398.398346,403.076355 
	C404.188629,401.636719 404.293274,401.523804 401.936218,395.820068 
	C394.909180,378.815765 396.281555,362.710266 406.615021,347.367706 
	C415.090240,334.784149 427.964172,329.911377 441.914948,326.855621 
	C444.211090,326.352661 445.793213,327.732086 446.779663,329.600922 
	C457.983185,350.825745 477.562836,361.660461 498.208405,371.210876 
	C514.368408,378.686279 531.332947,384.407806 546.713013,393.588318 
	C556.773926,399.593811 563.268799,408.085083 566.491638,419.448395 
	C571.479004,437.033264 561.484497,453.346100 539.864502,454.253387 
	C528.913147,454.712982 518.425598,451.771088 508.158417,448.205292 
	C487.827789,441.144501 468.529205,431.625977 448.792206,423.152924 
	C437.217926,418.184082 425.312683,414.749847 412.621521,414.422516 
	C400.784241,414.117218 386.879852,422.102753 382.531219,431.819244 
	C377.424957,443.228485 380.383972,456.587677 390.189545,466.750488 
	C402.047577,479.040497 417.412231,485.056427 433.027039,490.478516 
	C439.766418,492.818726 446.829956,494.214081 453.703949,496.186066 
	C455.390869,496.670013 458.010651,496.328430 457.893555,499.730316 
	C454.466400,501.143250 450.781982,500.531433 447.298706,500.297638 
	C427.955353,498.999268 409.526062,494.382996 392.767853,484.254028 
	C387.745026,481.218079 383.323151,477.384308 379.502014,472.940887 
	C377.156738,470.213623 375.104126,470.314484 372.247375,472.297119 
	C359.177948,481.367737 359.703888,487.557343 374.390656,494.686218 
	C390.144714,502.333160 407.023376,505.945404 424.181091,508.710083 
	C459.159088,514.346130 494.383209,515.632690 529.698120,514.544861 
	C546.635010,514.023132 563.514587,512.133972 580.739746,509.640961 
M478.629791,421.815857 
	C484.229889,424.376129 489.738159,427.165985 495.448578,429.450439 
	C508.720245,434.759583 521.889648,440.509338 536.421875,441.587585 
	C543.105835,442.083496 549.079468,440.661743 553.050110,434.718292 
	C556.966980,428.855255 555.671387,423.073029 552.595398,417.270752 
	C548.885498,410.272766 543.393982,405.129456 536.686951,401.125793 
	C526.361938,394.962463 515.289795,390.344513 504.354401,385.441528 
	C479.961456,374.504730 456.548737,362.312897 442.916809,337.557922 
	C441.905426,335.721375 440.474030,335.124573 438.320801,336.033142 
	C418.642242,344.336731 398.616852,366.837677 409.985565,396.083282 
	C411.352722,399.600220 413.217712,401.072388 416.950562,400.954956 
	C423.149811,400.759949 429.118225,402.541138 435.028015,404.046844 
	C450.110779,407.889648 464.061523,414.657440 478.629791,421.815857 
M496.620575,166.957016 
	C479.347717,174.095764 472.650574,192.421234 480.939758,208.590622 
	C489.936890,226.141052 515.561890,229.206848 529.132751,213.885574 
	C545.605957,195.287537 534.725769,174.143295 518.371643,167.120041 
	C514.273254,165.359985 512.897034,166.887421 513.048279,170.992264 
	C513.227417,175.854630 512.200562,180.587845 510.925446,185.242462 
	C510.499207,186.798370 509.794617,188.733002 507.754608,188.549561 
	C505.490601,188.345947 505.722107,186.237396 505.704437,184.634521 
	C505.655090,180.151321 505.726044,175.702377 504.678650,171.257126 
	C503.685547,167.042023 501.787964,164.994614 496.620575,166.957016 
z"/>
<path fill="#000000" opacity="1.000000" stroke="none" 
	d="
M699.326416,552.271362 
	C701.991882,546.227539 703.681152,540.266479 703.581848,534.045776 
	C703.445679,525.519409 700.466431,518.290588 692.154114,514.538696 
	C683.380493,510.578644 675.130676,512.191467 667.858643,518.123230 
	C660.806580,523.875610 658.091248,532.307434 655.487305,540.562134 
	C650.731140,555.639709 646.833191,570.991211 640.320129,585.482361 
	C624.372925,620.964111 600.312683,649.102783 564.226135,664.736816 
	C509.535950,688.430603 444.391052,678.362305 402.114899,629.362305 
	C375.002716,597.937927 360.493561,561.215637 356.632233,520.088562 
	C356.176147,515.230774 354.749573,510.352753 356.757050,504.941406 
	C359.860474,506.943481 359.692535,509.973511 360.264832,512.481445 
	C364.824707,532.464233 370.167664,552.205566 378.817261,570.867310 
	C391.044464,597.247864 407.445709,620.416382 430.990631,638.063293 
	C454.645538,655.792664 481.343323,663.326843 510.656281,661.966614 
	C558.449219,659.748901 593.147034,636.100159 617.741028,596.098450 
	C627.704834,579.892517 633.731750,562.117432 638.606140,543.872070 
	C641.537659,532.898621 644.897339,522.049255 651.902954,512.854858 
	C661.670105,500.036163 674.964722,495.617035 690.402954,498.437531 
	C704.492004,501.011505 713.788757,509.602570 716.633240,523.879822 
	C718.693604,534.221191 717.202576,544.396118 713.028198,554.183533 
	C705.251953,572.416138 691.291260,584.606506 674.408386,593.897705 
	C664.593750,599.299072 654.216919,603.369690 643.225037,605.747253 
	C641.000488,606.228455 641.000977,606.230652 638.175659,605.043091 
	C638.296448,602.453430 640.608032,602.162476 642.260803,601.321594 
	C656.085938,594.287598 669.814026,587.154541 681.319031,576.434387 
	C688.720337,569.538025 695.004456,561.895935 699.326416,552.271362 
z"/>
<path fill="#000000" opacity="1.000000" stroke="none" 
	d="
M566.893494,787.028137 
	C568.629211,776.880371 568.818726,767.067566 568.975830,757.244019 
	C569.084961,750.418396 569.348450,743.592896 569.673279,736.773560 
	C570.009277,729.719604 572.621216,726.258850 579.515625,724.934265 
	C586.850586,723.525146 594.332092,722.897461 601.716187,721.719238 
	C607.134583,720.854614 612.501343,719.663025 617.886963,718.596191 
	C621.104248,717.958862 624.148865,718.079102 625.096924,721.893005 
	C626.184631,726.268250 622.875732,727.298401 619.653259,728.002258 
	C610.385437,730.026428 601.009460,731.376465 591.573364,732.338989 
	C589.093567,732.591919 586.609558,732.916931 584.169189,733.413818 
	C581.229065,734.012390 579.376282,735.865173 579.349915,738.948853 
	C579.228882,753.098083 577.132019,752.109131 591.172913,751.318726 
	C597.487549,750.963196 603.828796,750.695007 610.145813,750.857605 
	C619.041016,751.086304 622.971863,756.243713 621.681641,765.015930 
	C620.078125,775.918152 615.889771,785.850830 610.294373,795.183899 
	C608.471436,798.224487 608.685913,800.134521 611.100281,802.525940 
	C615.276184,806.662048 619.832031,810.234619 624.902649,813.184509 
	C626.337463,814.019348 627.866699,814.803894 629.053650,815.927429 
	C631.024048,817.792603 631.875610,820.124695 630.260986,822.666687 
	C628.665344,825.178894 626.319458,825.540833 623.701172,824.468872 
	C617.238953,821.823364 612.247559,817.106506 607.174683,812.540955 
	C601.973145,807.859436 602.080505,807.869019 596.808899,812.741943 
	C592.771301,816.474426 588.506104,819.965515 583.805176,822.840759 
	C582.129089,823.865845 580.233154,824.675781 578.329407,825.146301 
	C576.096375,825.698242 573.925720,825.186340 572.801086,822.865540 
	C571.706360,820.606506 572.380676,818.588074 574.249207,817.063721 
	C575.529236,816.019531 576.950378,815.119263 578.397156,814.313904 
	C584.305237,811.024902 589.099365,806.419922 593.682617,801.553467 
	C594.875549,800.286743 595.855469,799.050110 594.675232,797.175293 
	C588.177307,786.853271 584.603394,775.490295 582.791687,763.507446 
	C582.666138,762.676941 582.389771,761.883667 581.070740,761.421326 
	C577.815979,763.187866 578.551392,766.735229 578.509277,769.492065 
	C578.376282,778.205200 577.119019,786.736084 575.281677,795.205444 
	C573.471375,803.550354 570.649109,811.532288 566.314514,818.932068 
	C565.809631,819.793884 565.325256,820.673462 564.749573,821.487000 
	C562.826233,824.204590 560.301636,825.874084 557.095825,824.034302 
	C553.674316,822.070801 554.299683,818.963623 556.059814,816.221069 
	C560.146606,809.853271 563.294983,803.103333 565.064270,795.739990 
	C565.723328,792.997437 566.237854,790.220276 566.893494,787.028137 
M611.265564,761.362732 
	C606.499451,757.423523 601.135681,759.958191 596.009949,759.970398 
	C592.588379,759.978516 591.777161,762.057922 592.334900,764.974365 
	C593.429810,770.699829 594.895020,776.328918 597.340759,781.645081 
	C598.541443,784.254944 599.130615,787.300781 602.409302,789.423096 
	C606.850708,780.508179 611.530029,772.142639 611.265564,761.362732 
z"/>
<path fill="#000000" opacity="1.000000" stroke="none" 
	d="
M548.474121,785.657532 
	C549.361389,797.591919 548.923340,809.081726 548.771973,820.566040 
	C548.727844,823.915405 547.925110,827.273987 543.644714,827.096741 
	C539.458801,826.923462 538.859009,823.570129 538.851746,820.212463 
	C538.820129,805.562866 538.838135,790.913147 538.838135,775.173889 
	C535.684509,781.266296 533.092712,786.481506 530.291382,791.581604 
	C529.182190,793.600952 527.792480,795.543762 526.194031,797.195862 
	C524.480774,798.966553 522.244812,799.852844 519.918152,798.117554 
	C517.513977,796.324341 517.321655,793.970642 518.713196,791.472168 
	C521.950989,785.658997 525.350891,779.933838 528.488953,774.068054 
	C531.795166,767.887939 534.122009,761.305786 536.143982,754.592041 
	C537.253662,750.907227 535.754883,749.610046 532.415039,749.467163 
	C529.754150,749.353333 527.083679,749.424561 524.427063,749.259460 
	C521.921387,749.103699 520.326111,747.729004 520.387024,745.126648 
	C520.445251,742.639099 521.896179,741.013794 524.406311,740.851196 
	C527.558533,740.646729 530.737061,740.583862 533.890747,740.737610 
	C537.591858,740.918091 538.972656,739.292175 538.849670,735.691650 
	C538.702026,731.367676 538.877075,727.033264 538.876404,722.703369 
	C538.875793,718.774658 538.661133,714.184326 544.045288,714.201660 
	C549.642395,714.219666 548.851929,719.099365 548.950378,722.835266 
	C549.068787,727.329163 549.100586,731.829102 549.013184,736.323425 
	C548.951416,739.502625 550.279297,740.911621 553.492798,740.731934 
	C555.648560,740.611389 557.829468,740.653259 559.981873,740.830994 
	C562.638306,741.050293 564.366394,742.482422 564.391052,745.290405 
	C564.414062,747.909851 562.850891,749.177002 560.321899,749.391846 
	C558.663513,749.532776 556.979187,749.566345 555.357910,749.898621 
	C553.150208,750.351135 549.591003,748.571655 549.114624,752.058044 
	C548.639160,755.538086 547.688049,759.385925 552.373718,761.988342 
	C557.342896,764.748352 560.636658,769.617981 563.382263,774.637329 
	C564.969482,777.539001 564.644531,780.365295 561.669800,781.972534 
	C558.821594,783.511475 556.488403,781.861267 554.921082,779.421997 
	C553.240295,776.806213 552.041870,773.849487 548.450867,771.286072 
	C548.450867,776.450867 548.450867,780.825562 548.474121,785.657532 
z"/>
<path fill="#000000" opacity="1.000000" stroke="none" 
	d="
M448.665833,814.657349 
	C452.448883,813.293396 455.841278,812.016663 459.736084,810.550781 
	C455.787079,804.835876 448.768066,802.154968 448.098145,794.963074 
	C446.173889,793.788269 444.110962,794.464355 442.173767,794.201599 
	C439.869904,793.889099 438.457825,792.582581 438.200775,790.373352 
	C437.914948,787.916748 439.625916,786.770935 441.732086,786.276733 
	C443.013794,785.975952 444.367645,785.873535 445.689545,785.870239 
	C457.688477,785.840271 469.687500,785.845459 481.686493,785.861572 
	C482.848969,785.863159 484.027832,785.909790 485.170441,786.104187 
	C488.334717,786.642334 491.620880,787.243469 492.892059,790.732666 
	C494.202271,794.328918 492.392639,797.210876 490.099060,799.786011 
	C486.910645,803.366028 483.651978,806.883423 480.214600,810.656921 
	C484.780945,813.382629 490.302032,814.420349 495.749603,815.656189 
	C498.504608,816.281128 501.301880,816.746887 504.019012,817.503784 
	C506.510773,818.197937 508.175049,819.872070 507.715576,822.637390 
	C507.257751,825.392883 505.196594,826.403442 502.570801,826.328918 
	C492.866577,826.053589 483.934418,822.698486 475.366028,818.657471 
	C470.974487,816.586365 467.632660,816.639709 463.277008,818.673035 
	C454.984406,822.544067 446.274323,825.459961 437.052460,826.459167 
	C433.969208,826.793274 431.024963,826.584045 430.396362,822.983337 
	C429.738617,819.215698 432.688751,818.373413 435.644470,817.732971 
	C439.872040,816.816956 444.066528,815.748108 448.665833,814.657349 
M479.375885,797.186951 
	C479.842499,796.397522 481.036407,795.889832 480.427521,794.748047 
	C472.731506,794.748047 465.114807,794.748047 457.498108,794.748047 
	C457.234558,795.190247 456.971008,795.632385 456.707489,796.074585 
	C457.716583,796.682495 458.876190,797.131531 459.711609,797.922852 
	C469.163605,806.875183 469.606262,806.883484 479.375885,797.186951 
z"/>
<path fill="#000000" opacity="1.000000" stroke="none" 
	d="
M501.845215,776.458435 
	C498.846924,780.609924 494.678802,781.189453 490.495117,781.222717 
	C476.199097,781.336304 461.900879,781.359253 447.605072,781.234192 
	C439.173889,781.160400 434.975250,777.109680 434.721008,769.318542 
	C434.410950,759.818787 437.664551,755.367371 446.644531,755.091492 
	C461.425140,754.637451 476.241638,754.539062 491.018188,755.033081 
	C502.177246,755.406128 506.399628,764.066711 501.845215,776.458435 
M493.571869,770.828552 
	C494.326965,763.869507 491.967957,761.503662 485.475403,762.354858 
	C482.788269,762.707153 482.115540,764.292847 482.425018,766.442688 
	C482.784088,768.936829 480.671936,772.643250 484.661102,773.544678 
	C487.544403,774.196228 490.979675,774.714783 493.571869,770.828552 
M452.210388,762.375122 
	C451.382446,762.365906 450.553101,762.320984 449.726807,762.353577 
	C445.909210,762.504150 444.003784,764.273254 444.236511,768.320679 
	C444.465271,772.299988 446.420685,774.022583 450.287994,773.751343 
	C451.870514,773.640381 454.227722,774.198608 454.468109,772.114014 
	C454.840576,768.884216 456.389862,765.242188 452.210388,762.375122 
M464.135895,767.586548 
	C464.336578,770.395691 463.239166,773.829834 468.141083,773.887817 
	C473.238037,773.947998 473.795471,773.432434 473.719513,767.223083 
	C473.687042,764.570862 473.729095,762.195007 469.957336,762.276917 
	C466.792664,762.345642 463.706421,762.096313 464.135895,767.586548 
z"/>
<path fill="#000000" opacity="1.000000" stroke="none" 
	d="
M495.257080,727.361328 
	C495.330719,731.600342 495.487946,735.424683 495.360107,739.239441 
	C495.138611,745.849426 491.898102,749.575684 485.486664,750.218384 
	C474.723206,751.297424 463.926849,751.523193 453.154205,750.278931 
	C446.210358,749.476868 442.874695,745.755554 442.608917,738.721924 
	C442.514893,736.232727 442.534424,733.736511 442.582733,731.245117 
	C442.761627,722.022949 446.348328,718.213379 455.463501,717.671997 
	C464.750061,717.120361 474.024323,716.694519 483.338562,717.580200 
	C489.501862,718.166260 493.725922,720.682434 495.257080,727.361328 
M468.500275,725.210938 
	C464.521423,725.254333 460.540192,725.229370 456.564667,725.368164 
	C454.383667,725.444275 452.433289,726.427002 452.575562,728.857056 
	C452.717987,731.288818 455.012909,730.623169 456.525574,730.636536 
	C464.815704,730.709900 473.106903,730.716064 481.397217,730.661804 
	C482.921478,730.651794 485.186859,731.298218 485.398651,728.914917 
	C485.623383,726.386169 483.488983,725.539368 481.423920,725.426025 
	C477.454376,725.208069 473.469604,725.267456 468.500275,725.210938 
M459.782745,742.976135 
	C466.574127,742.942322 473.365631,742.925232 480.156799,742.866211 
	C482.724640,742.843933 485.054382,742.412231 485.531830,738.448364 
	C474.404572,738.448364 463.634583,738.448364 452.854736,738.448364 
	C453.070557,742.522034 453.070557,742.522034 459.782745,742.976135 
z"/>
<path fill="#000000" opacity="1.000000" stroke="none" 
	d="
M503.714478,865.758423 
	C503.690979,860.635559 503.610626,855.958069 505.620453,851.571533 
	C506.649292,849.326050 508.028381,847.368042 510.839569,847.831665 
	C513.719604,848.306580 514.211426,850.678833 514.372803,853.122864 
	C514.842041,860.230103 513.400391,867.016174 510.944763,873.638123 
	C510.369293,875.190002 509.564240,876.761475 509.466034,878.360901 
	C509.319000,880.755920 510.050049,883.347839 512.492798,884.127625 
	C514.762268,884.852173 515.987366,882.595032 516.947449,880.885498 
	C518.490173,878.138489 519.548523,875.090881 522.290283,873.179260 
	C526.194275,870.457275 530.140076,871.375732 531.706970,875.658447 
	C528.613098,876.324524 524.421021,873.755554 522.680908,878.298645 
	C521.899353,880.339294 521.386841,882.486938 523.488770,884.168762 
	C527.662964,884.285828 526.558716,879.334412 529.201050,878.202087 
	C530.658508,878.252869 530.957581,879.211548 531.191101,880.203857 
	C531.612732,881.995850 531.898193,884.158447 534.166138,884.249512 
	C536.186157,884.330566 537.211304,882.397949 538.209961,880.894714 
	C539.941711,878.287903 540.705627,875.064636 543.428528,873.083740 
	C547.658447,870.006592 552.312622,871.087219 553.234253,875.454041 
	C551.962280,876.631287 550.729614,875.369995 549.478271,875.370361 
	C546.197815,875.371216 544.042786,876.901855 543.410095,880.123535 
	C543.100281,881.701538 542.831604,883.741699 545.012939,884.266052 
	C546.785950,884.692261 547.609192,883.114441 548.286194,881.755310 
	C549.055359,880.211121 548.910889,878.079529 551.252686,877.295898 
	C554.113342,879.743530 551.449463,883.428528 553.232300,886.109924 
	C557.768677,882.168457 559.071777,876.660034 560.242432,871.479736 
	C562.467590,871.190125 562.981689,872.258301 563.035706,873.477966 
	C563.109009,875.131714 563.008606,876.804932 562.837463,878.454773 
	C562.593811,880.803284 562.050476,883.784363 564.464111,884.706848 
	C567.370361,885.817688 568.685242,882.766235 569.916687,880.688843 
	C572.082153,877.035767 573.381042,873.198914 578.805359,872.299866 
	C583.629456,871.500244 585.698853,872.980469 586.942810,877.078186 
	C587.226929,878.014099 587.451416,878.968140 587.682068,879.833984 
	C589.241272,880.364990 589.969116,879.315857 590.850220,878.604492 
	C591.949341,877.717224 593.103516,875.943970 594.510254,877.817932 
	C595.662109,879.352478 594.311157,880.918213 593.120361,881.586914 
	C588.563293,884.145874 583.960571,886.685486 579.158752,888.722900 
	C576.377686,889.902954 574.210083,887.477661 571.805237,885.693176 
	C567.807983,888.867371 563.586914,891.087280 559.345947,885.778320 
	C554.894348,889.833252 551.910461,894.072266 552.277283,900.177185 
	C552.556580,904.825684 552.481079,909.510803 550.702209,913.966370 
	C549.506531,916.960999 547.744751,919.560425 544.137268,918.771179 
	C540.607971,917.999023 539.700256,914.886597 539.923401,911.713806 
	C540.341614,905.769165 542.579895,900.420166 545.940308,895.524902 
	C547.334656,893.493774 549.127502,891.604675 548.460632,888.334656 
	C543.908386,889.394775 539.641296,884.511292 534.816589,888.163513 
	C533.882019,888.871033 532.085022,888.488770 531.071167,887.507568 
	C529.418274,885.908081 528.074463,886.971802 526.281311,887.265015 
	C521.149231,888.104248 515.862671,886.631653 510.609680,887.773621 
	C509.699371,887.971497 508.334198,886.077148 507.132111,885.111450 
	C506.891357,885.153381 506.497620,885.105469 506.274261,885.278076 
	C501.538971,888.937500 498.856415,889.117981 496.455627,885.904053 
	C493.864594,882.435425 495.036804,876.672058 499.408783,873.635986 
	C502.157990,871.726746 504.594788,870.044312 503.714478,865.758423 
M543.768677,912.005920 
	C543.997314,913.245117 543.881042,914.734680 546.167786,914.816284 
	C548.752686,910.181763 548.883240,905.102417 548.545288,899.206970 
	C545.059753,903.004272 544.416443,907.149902 543.768677,912.005920 
M507.331543,865.808167 
	C507.590485,866.861450 506.963165,868.077881 508.076569,869.240295 
	C510.509003,863.766479 511.623322,858.371887 510.113892,851.466370 
	C507.303406,856.472473 507.275055,860.743530 507.331543,865.808167 
M504.003052,881.346863 
	C504.681152,879.509888 505.518982,877.661926 503.500397,875.751526 
	C499.310608,877.345764 498.471222,880.143799 500.026642,884.146423 
	C502.071869,884.434937 502.932831,883.291138 504.003052,881.346863 
M576.530518,884.475037 
	C578.370300,885.557861 579.974854,885.512451 581.410095,883.237427 
	C580.032104,881.222107 578.606018,879.136536 576.953674,876.719971 
	C574.815796,879.328491 574.623718,881.558716 576.530518,884.475037 
z"/>
<path fill="#000000" opacity="1.000000" stroke="none" 
	d="
M411.781616,750.000000 
	C411.776642,740.016174 411.805267,730.532166 411.750671,721.048645 
	C411.729279,717.328552 412.550262,714.058228 416.995056,714.205078 
	C421.253296,714.345764 421.494080,717.626404 421.483490,721.090698 
	C421.385071,753.345703 421.381226,785.600952 421.346405,817.856140 
	C421.344788,819.353027 421.372986,820.854126 421.275116,822.345886 
	C421.098358,825.040894 419.656006,826.775269 416.936951,826.915649 
	C414.225220,827.055725 412.564606,825.378601 412.020294,822.853943 
	C411.675049,821.252625 411.758362,819.545166 411.758118,817.885315 
	C411.754913,795.423523 411.770813,772.961792 411.781616,750.000000 
z"/>
<path fill="#000000" opacity="1.000000" stroke="none" 
	d="
M440.330719,871.496277 
	C437.945343,867.843079 438.988800,864.825928 441.128021,861.985352 
	C441.835052,861.046448 442.825195,860.160461 444.105072,860.852173 
	C445.483368,861.597046 444.910492,862.703674 444.471619,863.861938 
	C442.528839,868.989319 443.486328,870.702637 448.762207,871.627869 
	C450.889130,872.000916 453.034943,872.301514 455.184540,872.503540 
	C463.069092,873.244385 469.837677,872.255432 473.838501,863.822510 
	C476.740723,857.705261 480.958008,852.212830 484.576324,846.433899 
	C485.357819,845.185730 485.959412,843.439026 487.873199,844.264832 
	C489.535858,844.982239 488.559448,846.534668 488.522430,847.792664 
	C488.351166,853.609314 488.325226,859.431335 488.081116,865.244446 
	C487.931305,868.812012 489.267944,870.132935 492.843781,869.300964 
	C494.377350,868.944092 496.217957,868.638306 496.979645,870.866455 
	C496.329651,872.959045 494.428650,873.003113 492.910370,872.963806 
	C488.110138,872.839417 488.042419,875.582458 488.568878,879.184998 
	C489.032288,882.356506 490.722748,885.385864 490.084259,888.702698 
	C487.197357,889.457825 486.677948,887.481567 486.183411,885.758789 
	C485.635010,883.848511 484.951874,881.839722 485.044739,879.908325 
	C485.314911,874.289368 482.179901,873.803162 477.789886,874.427612 
	C472.972717,875.112793 468.822388,876.448364 465.003662,880.033264 
	C457.150269,887.405823 447.907684,891.589783 436.760101,888.211487 
	C434.600647,887.557129 432.221466,886.850708 432.023865,882.557739 
	C437.566040,884.331604 442.725830,886.777832 448.328156,885.348145 
	C453.911682,883.923096 458.606323,881.179993 463.175964,876.564331 
	C454.933441,875.833862 447.016785,877.029663 440.330719,871.496277 
M483.915710,858.726135 
	C483.759644,858.028748 484.220093,857.042297 482.745728,856.748718 
	C479.745331,861.282410 476.699188,865.885193 473.487518,870.738159 
	C483.775574,871.236755 483.775238,871.236755 483.876740,861.920166 
	C483.885712,861.096680 483.903168,860.273376 483.915710,858.726135 
z"/>
<path fill="#000000" opacity="1.000000" stroke="none" 
	d="
M403.649628,772.515137 
	C401.571899,774.903381 399.406006,775.851990 396.828003,774.289734 
	C394.191925,772.692322 394.323547,770.130432 395.094208,767.664001 
	C397.375763,760.362305 398.644073,752.863953 399.557556,745.303345 
	C399.906403,742.415955 401.010345,740.427979 404.123505,740.622253 
	C407.258392,740.817932 408.255707,743.225525 408.216553,745.893372 
	C408.084900,754.863953 407.187744,763.732666 403.649628,772.515137 
z"/>
<path fill="#000000" opacity="1.000000" stroke="none" 
	d="
M426.726624,751.185852 
	C425.686890,748.146179 424.794617,745.471802 423.780304,742.844482 
	C422.776459,740.244385 423.397400,738.216003 425.876770,737.015076 
	C428.257874,735.861694 430.073029,737.059082 431.399811,738.992798 
	C434.061157,742.871460 435.623749,747.241760 436.762604,751.764526 
	C437.504272,754.709839 436.769562,757.198059 433.645874,758.107666 
	C430.532318,759.014404 428.571259,757.456970 427.700867,754.422302 
	C427.426758,753.466553 427.115051,752.521606 426.726624,751.185852 
z"/>
<path fill="#000000" opacity="1.000000" stroke="none" 
	d="
M564.790283,864.388916 
	C563.509583,866.555359 561.965393,867.140442 560.077454,865.993286 
	C558.628601,865.112915 558.284851,863.667175 558.857666,862.126892 
	C559.352173,860.796936 560.450439,859.901794 561.865662,860.004089 
	C564.279175,860.178467 565.266113,861.671387 564.790283,864.388916 
z"/>
</svg>