<svg version="1.1" id="Layer_1" xmlns="http://www.w3.org/2000/svg" xmlns:xlink="http://www.w3.org/1999/xlink" x="0px" y="0px"
	 width="100%" viewBox="0 0 500 500" enable-background="new 0 0 500 500" xml:space="preserve">
<path fill="#000000" opacity="1.000000" stroke="none" 
	d="
M282.000000,501.000000 
	C189.333359,501.000000 97.166679,500.975616 5.000191,501.095703 
	C1.576140,501.100189 0.903036,500.423828 0.905301,497.000000 
	C1.013778,333.000092 1.013756,169.000122 0.905337,5.000247 
	C0.903074,1.576949 1.575791,0.903021 4.999876,0.905286 
	C168.999756,1.013775 332.999725,1.013761 496.999634,0.905353 
	C500.422668,0.903091 501.096985,1.575427 501.094727,4.999756 
	C500.986206,168.999634 500.986237,332.999603 501.094604,496.999512 
	C501.096893,500.422272 500.425659,501.102539 497.000244,501.096436 
	C425.500336,500.968658 354.000153,501.000000 282.000000,501.000000 
z"/>
<path fill="#DD9995" opacity="1.000000" stroke="none" 
	d="
M304.964935,218.331970 
	C310.799530,200.401520 301.308044,189.802383 286.922302,184.149384 
	C275.329590,179.593918 262.901123,177.729233 250.809982,174.778549 
	C241.022568,172.390076 231.286194,169.260651 223.427109,162.011292 
	C210.214432,149.823730 212.580765,129.896530 227.590256,119.092918 
	C229.918900,117.416786 232.674133,116.333344 235.601105,114.943329 
	C238.004654,115.538773 239.630981,116.744064 241.036041,118.742401 
	C233.442230,124.260689 225.932297,129.566833 223.995972,139.623871 
	C222.970901,144.948074 225.839478,152.563065 230.274323,155.690613 
	C240.762558,163.087097 253.002594,165.361954 265.180542,168.144623 
	C278.846710,171.267380 293.074799,173.298401 304.385773,182.764694 
	C311.002167,188.302048 315.166290,195.317245 316.008972,204.483231 
	C316.898621,206.294052 316.361450,207.836884 316.231323,209.716324 
	C316.022980,214.635895 314.260101,218.703903 312.412537,223.009705 
	C309.445557,222.105240 306.242401,221.949814 304.964935,218.331970 
z"/>
<path fill="#674A2F" opacity="1.000000" stroke="none" 
	d="
M195.824295,296.835999 
	C196.290726,297.455688 196.550339,297.885040 196.935135,298.536682 
	C197.206100,299.081818 197.397842,299.374542 197.847656,299.794617 
	C198.059662,299.952179 197.994965,299.959442 198.025589,299.945251 
	C198.223129,300.204498 198.420639,300.453674 198.821045,300.844147 
	C198.993378,301.009644 198.977097,301.490601 198.991913,301.730774 
	C199.225647,302.195923 199.443893,302.421509 199.817413,302.824036 
	C207.555832,309.079407 214.482437,316.149750 224.013870,319.325134 
	C229.067291,321.008636 234.194687,322.470032 239.688568,324.002502 
	C244.370453,322.940826 248.728134,323.808624 253.442108,323.298615 
	C266.693634,322.359131 277.514618,316.877014 287.379669,308.961304 
	C296.026733,302.022858 301.934998,293.170502 306.591248,282.960388 
	C309.529907,284.341583 311.169922,286.492279 311.161469,290.042084 
	C308.027435,300.017212 301.557922,307.228180 294.318542,313.820801 
	C285.030640,322.278870 274.026123,327.420074 261.790588,330.001495 
	C260.836243,330.202820 259.804779,330.038605 258.396118,330.022491 
	C251.309830,331.090363 244.595139,330.269012 237.469208,330.226532 
	C227.875977,329.942200 219.870544,326.222656 212.307526,321.640503 
	C204.480988,316.898773 197.421234,311.167450 193.016281,302.440125 
	C192.161621,301.384521 192.057129,300.239990 191.058853,299.346405 
	C190.774811,299.219849 190.986755,299.009491 190.882294,299.113617 
	C190.513382,298.446899 189.890381,297.960114 189.103607,297.248779 
	C188.860855,297.086823 188.906433,297.011841 188.910645,297.055511 
	C186.677124,291.645569 186.698212,291.586334 191.648315,290.708405 
	C192.044098,290.879913 192.097198,290.894440 192.103531,290.921234 
	C192.427399,291.440796 192.483154,292.023956 192.882904,292.751282 
	C193.098404,292.939789 193.076172,292.998322 193.067032,292.968384 
	C193.249634,293.215424 193.460480,293.476959 193.884018,293.884949 
	C194.338699,294.444244 194.599747,294.841797 194.976379,295.452393 
	C195.201050,296.027618 195.376236,296.354340 195.824295,296.835999 
z"/>
<path fill="#66482F" opacity="1.000000" stroke="none" 
	d="
M275.421143,256.717712 
	C273.661438,256.931885 272.231445,256.975342 270.371277,257.015747 
	C268.014099,258.041748 265.925568,257.213989 263.576477,257.665253 
	C260.709259,258.186340 258.202576,258.577362 255.270966,258.936096 
	C248.861420,257.971497 242.831589,258.799164 236.422348,258.248962 
	C235.488113,258.010406 234.963791,257.963226 234.057159,257.817444 
	C230.712646,257.202179 227.718750,257.688324 224.400208,257.225311 
	C222.934738,257.010803 221.817200,257.007812 220.285706,256.938751 
	C218.505615,256.138855 217.005234,256.693268 215.297363,256.210693 
	C202.675003,254.110733 190.279648,252.443085 179.271942,245.029800 
	C178.784180,244.727402 178.612732,244.585358 178.176270,244.240097 
	C177.911255,244.036865 177.983902,244.054337 177.954712,244.077667 
	C177.601868,243.592972 177.515930,243.000031 177.103363,242.256195 
	C176.874008,242.070526 176.841309,242.192444 176.779037,242.182190 
	C176.285706,240.737213 176.579880,239.736801 178.691223,239.768005 
	C188.399170,245.717957 198.736008,247.966751 209.781708,249.071899 
	C211.791870,249.902451 213.570648,249.281937 215.575348,249.782700 
	C219.595184,251.420532 223.486298,250.866150 227.741898,251.084717 
	C241.099945,251.914108 254.041885,251.345123 267.414246,251.306519 
	C269.646057,250.756409 271.598572,251.454590 273.654785,250.210098 
	C275.120605,250.857269 276.348785,250.436356 277.775909,250.201538 
	C278.012177,250.008026 278.490692,249.962784 278.730164,249.982941 
	C280.608612,248.980423 282.439392,249.773270 284.500793,249.303314 
	C289.931335,248.082733 295.029846,247.084305 300.092499,245.928818 
	C306.557068,244.453308 312.390015,241.745865 316.964813,236.398773 
	C316.898651,234.963608 317.516602,234.502960 318.456635,234.742264 
	C319.581238,235.028564 319.895782,236.038223 319.857880,237.069992 
	C319.781616,239.144028 318.548157,240.760437 317.313904,242.825562 
	C312.601898,248.513901 306.002594,249.857056 299.940002,251.860321 
	C293.801147,253.888794 287.494507,255.709595 280.501709,256.017334 
	C278.731323,256.944702 277.182007,256.272705 275.421143,256.717712 
z"/>
<path fill="#DD9995" opacity="1.000000" stroke="none" 
	d="
M244.842224,182.782379 
	C245.125992,182.955322 245.577881,183.014587 245.795197,183.083176 
	C246.197342,183.285309 246.382156,183.418839 246.840515,183.757660 
	C248.855927,184.597336 250.597794,185.231720 252.665100,186.026001 
	C254.015991,187.056427 255.228195,187.460556 256.811584,187.790222 
	C257.080109,187.972000 257.543518,188.057861 257.768127,188.129044 
	C259.360748,189.304733 260.961548,189.968475 262.847656,190.786880 
	C263.125549,190.955444 263.567169,191.012054 263.778809,191.081177 
	C264.758148,191.837326 265.694275,192.229050 266.878845,192.797974 
	C268.034119,193.402924 268.925842,193.857040 269.927551,194.600494 
	C270.614960,195.759033 271.533295,196.153137 272.634857,196.797668 
	C272.853485,196.998749 272.954254,197.457962 272.990051,197.690308 
	C273.654388,198.740753 273.868958,199.806824 274.847321,200.752350 
	C275.089111,200.944443 275.019226,200.996582 275.038757,200.957611 
	C275.619354,202.981796 276.686371,204.895157 276.956177,207.039886 
	C277.871918,214.318970 275.820618,217.519806 267.375305,221.673065 
	C267.004333,221.844955 266.577850,221.979858 266.354370,221.989304 
	C265.950897,222.124619 265.770905,222.250504 265.262604,222.350464 
	C263.867218,221.983170 262.783691,221.949326 261.370483,222.239395 
	C260.834381,222.341797 260.615417,222.356476 260.124023,222.186386 
	C259.851593,222.001633 259.408386,221.993515 259.197083,221.926575 
	C254.600967,220.411575 250.079483,219.496292 245.261215,218.237061 
	C244.924637,218.048264 244.991684,218.009460 244.973877,218.043854 
	C244.609665,217.517868 244.114563,217.335022 243.239746,217.657913 
	C230.350037,212.614578 218.317551,205.832245 204.364304,202.882080 
	C203.179260,202.466019 202.346817,202.503754 201.520874,202.485077 
	C200.068085,202.452240 198.884903,201.933212 198.523361,200.415268 
	C198.121277,198.727051 199.079163,197.566498 200.331345,196.637741 
	C202.214691,195.240845 204.443909,195.633453 206.974121,195.503159 
	C218.116272,196.272583 227.311996,201.467194 236.845749,205.733780 
	C244.123260,208.990677 251.314697,212.575531 259.194214,214.173859 
	C265.369110,215.426407 268.541748,212.858063 269.270416,206.191803 
	C269.602264,203.415527 269.170227,201.349426 266.379211,200.062683 
	C265.903839,199.741272 265.725677,199.595459 265.319733,199.191025 
	C261.675323,194.813980 256.732361,193.367874 251.709457,191.437469 
	C251.159378,191.343826 250.942169,191.291672 250.411880,191.122208 
	C248.908707,190.457382 247.944504,189.480667 246.318069,189.042175 
	C245.812805,188.795670 245.615417,188.684296 245.141373,188.373383 
	C242.708435,186.759338 240.375473,185.755173 237.519348,185.000793 
	C236.960663,184.687057 236.748749,184.533249 236.277481,184.074127 
	C235.000641,181.354019 234.639450,179.307098 238.741577,179.760941 
	C239.104980,179.963699 239.563522,180.043137 239.787811,180.105072 
	C240.193039,180.295135 240.373978,180.423279 240.817047,180.756073 
	C241.079178,180.960709 241.007080,180.980118 241.027344,180.948761 
	C241.886627,182.168777 243.423279,181.972595 244.842224,182.782379 
z"/>
<path fill="#674A2F" opacity="1.000000" stroke="none" 
	d="
M338.531708,243.770477 
	C352.777100,249.214478 353.911285,263.605713 346.681213,275.984375 
	C343.341980,281.701508 338.719147,285.889984 332.665283,289.069153 
	C330.148346,289.714417 327.748627,291.220184 326.739624,287.248108 
	C334.221893,282.458618 339.398560,276.326508 342.617279,268.494476 
	C345.135193,262.367737 344.186371,256.525085 340.064941,253.171219 
	C335.950989,249.823441 332.170258,250.229858 325.537659,254.913239 
	C322.541840,256.434174 320.037048,256.591370 317.948120,253.331726 
	C319.402985,248.301117 323.519287,246.465912 327.644135,244.156876 
	C331.303314,242.952011 334.728302,243.702423 338.531708,243.770477 
z"/>
<path fill="#DB9C96" opacity="1.000000" stroke="none" 
	d="
M250.585968,241.313278 
	C252.692764,241.098480 254.409683,241.037201 256.556641,240.957962 
	C258.332458,240.098373 259.840302,240.703827 261.593689,240.332367 
	C262.436188,239.855713 262.938354,239.508911 263.749420,239.163895 
	C266.099030,239.858353 268.195770,239.377090 270.588837,239.331879 
	C282.448059,236.474213 293.501434,232.836639 301.619354,222.935822 
	C304.060883,224.638321 305.375885,227.122406 307.063873,229.704071 
	C298.557770,239.695236 287.277557,243.053406 274.516754,244.008698 
	C271.741791,245.030151 269.270233,244.224533 266.495026,244.670471 
	C265.955170,244.866241 265.799591,244.929276 265.392578,245.004608 
	C260.346588,246.067535 255.489563,245.218597 250.224335,245.481110 
	C248.706512,245.341919 248.358810,244.584442 248.240997,243.232422 
	C248.557037,241.843857 249.278809,241.515289 250.585968,241.313278 
z"/>
<path fill="#D89791" opacity="1.000000" stroke="none" 
	d="
M210.937866,239.826538 
	C211.545212,239.985428 211.958496,240.007507 212.676468,240.089127 
	C213.848785,241.044861 214.121872,242.089111 213.543396,243.658966 
	C213.073700,244.167923 212.824234,244.308487 212.205353,244.229950 
	C211.835938,244.010834 211.392776,243.996445 211.183899,243.922165 
	C210.565674,243.617447 210.128128,243.511444 209.342178,243.690521 
	C207.251816,244.342850 205.997803,242.603073 204.143768,242.422348 
	C201.766891,240.414062 199.142242,239.875381 196.173126,239.227631 
	C193.957901,239.012451 192.535889,238.000992 191.088867,236.470627 
	C188.799164,234.140579 187.075699,231.664124 184.271851,229.826935 
	C183.284103,229.525391 182.678879,229.239059 182.130890,228.325623 
	C179.788330,220.962936 178.540787,214.006134 181.874847,206.837402 
	C183.876663,202.533173 187.625977,200.524979 191.638611,198.202164 
	C194.909073,199.393204 196.026596,201.374329 194.329376,204.779236 
	C194.085754,205.140274 194.053513,205.054123 194.095764,205.072281 
	C193.606033,205.381546 193.010071,205.485168 192.234268,205.885544 
	C185.558868,211.961578 184.348389,218.618912 189.000214,226.544937 
	C189.231476,227.184631 189.453812,227.435654 189.887543,227.826904 
	C190.092346,227.972931 190.021255,227.981171 190.032700,227.947266 
	C190.513718,228.532349 191.081360,229.058121 191.871277,229.767365 
	C192.102478,229.942383 192.031204,229.963409 192.029205,229.926300 
	C192.209778,230.184402 192.434998,230.442352 192.912842,230.814148 
	C193.122833,230.965195 193.561859,230.993973 193.774567,231.050079 
	C194.242706,231.308731 194.502045,231.506119 194.978348,231.818207 
	C198.886093,233.961212 202.580795,235.984406 206.646729,238.079041 
	C207.510239,238.505157 208.118073,238.492035 208.922546,238.807129 
	C209.178741,238.945831 209.596466,238.975372 209.795319,239.040955 
	C210.241699,239.303970 210.491562,239.498383 210.937866,239.826538 
z"/>
<path fill="#D79C97" opacity="1.000000" stroke="none" 
	d="
M230.082642,87.207191 
	C231.929916,80.706917 237.928711,79.413437 242.853592,76.474815 
	C239.880280,73.799889 237.694168,70.465317 234.080536,68.534210 
	C232.903030,67.904953 231.448242,66.538597 232.141937,64.864464 
	C233.087555,62.582436 234.265747,64.968338 235.329178,65.054916 
	C241.510422,65.558098 245.577393,69.038559 248.215012,74.524582 
	C248.939575,76.031570 249.437042,77.717148 251.799164,78.100159 
	C259.191956,79.298843 263.018250,84.379730 265.024414,91.558197 
	C265.979828,94.328644 265.323181,96.806068 265.222443,99.648346 
	C265.005676,100.056854 264.976685,100.537025 264.911987,100.768692 
	C263.964203,101.812981 263.005524,101.821960 261.723389,101.012314 
	C260.452698,99.272095 260.667786,97.590385 260.690582,95.948021 
	C260.726318,93.370140 259.878601,91.063614 258.480072,88.962746 
	C257.376587,87.305107 256.106140,85.274307 254.008743,85.449196 
	C251.821823,85.631554 252.770004,88.111786 252.255920,89.535347 
	C251.605652,91.336075 250.822617,93.125740 248.727661,93.200790 
	C246.395355,93.284340 245.968155,91.269798 245.549133,89.447868 
	C244.174194,83.469650 243.965103,83.402916 239.004501,87.471428 
	C237.978104,88.313240 237.015289,89.224197 235.288055,89.481934 
	C233.454651,88.641121 231.596542,88.715858 230.082642,87.207191 
z"/>
<path fill="#684F38" opacity="1.000000" stroke="none" 
	d="
M191.934860,290.549286 
	C188.449768,291.262634 188.026108,293.434021 188.932220,296.732269 
	C184.556870,292.652924 182.799667,286.754700 180.592392,281.237396 
	C178.487701,275.976532 177.468994,270.281189 175.977234,264.375183 
	C175.048737,262.660553 175.733490,261.144989 175.282227,259.430115 
	C175.003784,255.165451 172.511139,251.314209 175.235413,245.753922 
	C180.194275,261.666351 182.279709,277.434753 191.934860,290.549286 
z"/>
<path fill="#D89791" opacity="1.000000" stroke="none" 
	d="
M280.828979,134.777679 
	C282.898712,135.765808 283.621552,138.022217 285.901428,138.590332 
	C286.517609,139.557602 286.734711,140.372879 287.213165,141.040863 
	C288.059448,142.222336 289.410645,143.456100 288.100922,144.917511 
	C286.847900,146.315643 285.181732,147.079636 283.114807,145.304840 
	C282.851410,145.060196 282.949799,145.053253 282.947266,145.102509 
	C282.610596,144.630417 282.057098,144.418320 281.250885,144.110870 
	C279.508362,142.740631 278.054657,141.414917 276.298981,139.949554 
	C273.505707,136.437073 270.101166,134.240936 266.131470,132.218750 
	C263.788818,130.858856 262.623077,129.026627 261.985352,126.448654 
	C261.234619,123.696075 259.983429,121.199699 263.602051,119.458466 
	C264.607666,119.443367 265.087280,119.698158 265.632538,120.540298 
	C266.363098,123.860306 269.226868,125.285294 270.674988,127.989502 
	C271.185272,128.269043 271.369049,128.411102 271.843048,128.745972 
	C272.133270,128.938766 272.050537,128.952072 272.068665,128.914307 
	C273.708923,132.538605 277.010590,133.722351 280.828979,134.777679 
z"/>
<path fill="#D89791" opacity="1.000000" stroke="none" 
	d="
M293.212036,156.763718 
	C292.989380,157.449127 292.837952,157.712585 292.312500,157.954346 
	C291.220001,158.678497 291.620117,159.686691 291.253357,160.832367 
	C291.109009,161.140320 291.091278,161.044312 291.140076,161.043549 
	C290.578186,161.373734 290.511963,161.998596 290.235107,162.855225 
	C290.109711,163.132996 290.015839,163.016083 290.073669,163.063812 
	C288.929108,163.659119 287.469513,163.569031 286.244354,164.849442 
	C282.480530,167.769104 278.701324,167.442719 274.420715,165.894989 
	C272.267700,163.388275 270.714691,160.993622 275.616699,159.742752 
	C277.491638,159.406509 279.002991,159.542770 280.866089,159.503372 
	C284.501862,159.538879 286.330200,158.009003 286.321838,154.340286 
	C286.130554,153.569916 286.079254,153.107391 286.101929,152.301880 
	C286.630829,148.883011 287.406708,146.123810 291.818665,146.771942 
	C292.765839,147.770645 293.356720,148.597794 293.910828,149.750458 
	C293.067932,152.146454 293.743561,154.320709 293.212036,156.763718 
z"/>
<path fill="#D9A39E" opacity="1.000000" stroke="none" 
	d="
M265.207458,119.737305 
	C261.600708,120.410355 262.060425,123.000603 261.981995,125.694427 
	C258.874420,123.021835 259.406860,118.940201 260.375183,115.643349 
	C261.445251,111.999878 259.302673,113.226761 257.430115,113.048973 
	C255.407471,112.456772 254.350098,111.220001 253.464325,109.371300 
	C254.965347,105.058914 257.998932,102.334488 261.595703,99.832199 
	C262.470093,100.722328 263.270142,100.974121 264.517700,100.994041 
	C264.880096,101.451706 264.912872,101.903038 264.866394,102.687424 
	C264.671783,103.201675 264.556488,103.382874 264.239166,103.815048 
	C264.037170,104.066032 264.005249,104.005936 264.036377,104.019623 
	C263.921173,104.164803 263.774841,104.296288 263.735443,104.702812 
	C263.527405,106.320374 261.961945,108.223572 265.199280,107.964935 
	C265.846222,107.913254 266.511536,107.870834 267.148834,107.961456 
	C268.923462,108.213806 271.001038,108.765808 271.472443,110.393494 
	C271.778381,111.449898 270.097351,112.634689 268.570129,113.184639 
	C267.592346,113.536736 266.893280,114.662804 265.930054,115.767792 
	C265.267578,117.176018 265.625610,118.353943 265.207458,119.737305 
z"/>
<path fill="#D89791" opacity="1.000000" stroke="none" 
	d="
M253.673828,108.622650 
	C254.804306,110.160660 257.213989,110.133461 257.010864,112.755432 
	C252.112152,115.429108 246.630936,116.278931 241.516891,119.046692 
	C238.973358,118.622910 237.244370,117.536095 236.038544,115.251480 
	C238.885071,113.048103 235.534988,112.809235 235.050735,111.499710 
	C233.801971,109.264427 234.843857,107.806000 236.283737,106.125862 
	C239.440445,104.897064 241.655533,107.050972 244.566437,107.575554 
	C246.368301,108.201080 247.838425,108.713478 249.770340,108.473427 
	C250.531570,108.318596 250.969421,108.230110 251.751816,108.135254 
	C252.551605,108.123856 252.994827,108.221786 253.673828,108.622650 
z"/>
<path fill="#D9A39E" opacity="1.000000" stroke="none" 
	d="
M259.211029,157.952774 
	C253.007889,153.663483 247.657440,148.830978 246.441422,140.994156 
	C246.241241,139.704102 246.023117,138.404892 245.983978,137.104782 
	C245.934113,135.447800 246.445740,133.331680 248.001266,133.238998 
	C250.120682,133.112732 250.031387,135.262970 250.046097,136.977066 
	C250.116562,145.192383 256.465790,148.908707 261.971191,153.634644 
	C261.944855,155.720261 260.641205,156.704712 259.211029,157.952774 
z"/>
<path fill="#D79C97" opacity="1.000000" stroke="none" 
	d="
M238.968033,179.629486 
	C236.582794,179.815323 235.895859,180.919708 236.959717,183.515808 
	C236.422714,184.590515 235.538895,184.874420 234.797287,184.476013 
	C228.080460,180.867706 221.079758,177.538712 218.457443,169.091324 
	C219.002533,167.309341 219.816544,166.345490 221.818787,166.737015 
	C226.937225,172.119415 232.474976,176.259155 238.968033,179.629486 
z"/>
<path fill="#D89791" opacity="1.000000" stroke="none" 
	d="
M229.912247,86.908234 
	C231.576218,87.302567 233.716522,86.218208 234.954437,88.781799 
	C235.160477,89.343391 235.266708,89.532356 235.348846,90.044983 
	C234.687668,91.557816 234.555679,92.770119 235.261658,94.343094 
	C235.949478,97.510910 237.096497,100.250801 236.813965,103.604912 
	C236.037201,105.510010 234.896698,106.475891 232.828842,106.748077 
	C231.676331,106.519020 231.082840,106.022667 230.170746,105.318802 
	C229.865829,105.088577 229.940857,105.064072 229.942200,105.103516 
	C229.781876,104.831589 229.573929,104.555733 229.086212,104.190353 
	C228.859772,104.059914 228.941162,104.051628 228.925552,104.089439 
	C228.334564,101.188927 228.297195,98.191254 227.851105,94.825912 
	C227.705780,94.155426 227.637970,93.889160 227.782318,93.269531 
	C227.994446,92.916168 227.998672,92.440826 228.068695,92.213692 
	C229.052933,90.623337 228.896957,88.914635 229.753174,87.180832 
	C229.913223,86.880638 229.930908,86.925278 229.912247,86.908234 
z"/>
<path fill="#66482F" opacity="1.000000" stroke="none" 
	d="
M311.184326,290.360718 
	C310.080933,287.949799 307.659973,286.280457 306.979248,283.167542 
	C308.402832,278.670044 309.891083,274.542572 311.666901,270.190002 
	C316.557312,272.684692 315.826721,277.046753 315.260315,281.694427 
	C315.075470,282.087494 315.051178,282.005920 315.087097,282.028748 
	C314.964172,282.172028 314.805359,282.292511 314.759888,282.689636 
	C315.066437,285.017700 313.585602,286.493256 312.997864,288.646667 
	C312.546844,289.457092 311.951416,289.480072 311.286011,289.912628 
	C311.144531,290.158020 311.226440,290.293610 311.184326,290.360718 
z"/>
<path fill="#D9A39E" opacity="1.000000" stroke="none" 
	d="
M194.475250,205.096863 
	C194.134567,202.836288 193.965729,200.598419 192.080811,198.505707 
	C193.765167,196.691162 198.052094,197.070297 195.914276,192.393127 
	C197.219589,190.032425 196.988525,187.125107 199.822144,185.825684 
	C200.441177,186.110352 200.791763,186.345078 200.820694,186.634811 
	C201.290207,191.339920 204.133331,194.212799 208.138824,196.579849 
	C206.831024,196.970856 205.518967,197.023468 204.208084,197.002594 
	C202.093018,196.968903 199.894638,197.414932 199.554031,199.680618 
	C199.146957,202.388397 202.016937,201.595444 203.692291,202.595291 
	C200.728531,202.738602 197.776077,203.812881 194.475250,205.096863 
z"/>
<path fill="#684F38" opacity="1.000000" stroke="none" 
	d="
M315.376617,281.877594 
	C315.250885,278.004852 312.492584,274.578796 312.222229,270.250427 
	C311.931671,267.670319 311.602905,265.318054 313.506042,263.102844 
	C317.090698,260.863953 318.669739,262.098755 318.993469,265.630768 
	C319.082397,266.601166 318.932251,267.603699 319.723267,268.738403 
	C318.518433,273.218719 317.098114,277.443207 315.376617,281.877594 
z"/>
<path fill="#66482F" opacity="1.000000" stroke="none" 
	d="
M319.958130,268.597656 
	C317.852386,268.667206 317.987762,267.000458 317.936157,265.536102 
	C317.846619,262.995026 316.124725,263.011139 314.060699,262.983673 
	C313.805573,262.875214 313.979919,262.417084 314.052856,262.183105 
	C314.507568,261.499054 314.490173,260.914215 314.816864,260.164856 
	C314.574799,257.337616 316.564026,255.548676 317.511871,253.109711 
	C319.919525,253.920349 321.951477,255.226700 324.862793,255.092957 
	C323.725616,259.571899 320.230865,263.230988 319.958130,268.597656 
z"/>
<path fill="#D89791" opacity="1.000000" stroke="none" 
	d="
M200.226440,185.802780 
	C197.841278,187.501099 200.629471,191.593719 196.250793,192.005463 
	C194.006622,186.909821 195.400757,181.644516 195.528290,176.207016 
	C197.925186,174.883316 199.529114,172.107056 202.613388,174.647827 
	C203.284195,178.789551 202.168808,182.225067 200.226440,185.802780 
z"/>
<path fill="#D89791" opacity="1.000000" stroke="none" 
	d="
M307.410400,230.033386 
	C304.436310,228.650574 301.904541,227.133713 301.947876,223.174408 
	C303.029053,221.441986 304.345886,220.208115 304.612366,218.116150 
	C306.456268,220.696167 310.633148,219.322006 311.983368,222.822845 
	C311.625244,224.150528 311.186737,225.121048 310.657043,226.408707 
	C310.252533,227.689209 310.343109,228.817841 309.150299,229.688354 
	C308.491058,229.901962 308.099487,229.958023 307.410400,230.033386 
z"/>
<path fill="#684F38" opacity="1.000000" stroke="none" 
	d="
M326.561737,286.838348 
	C327.423828,289.575195 329.683563,288.837006 331.903290,289.076660 
	C327.078613,293.930481 320.131378,294.809967 313.781128,297.057404 
	C313.345367,297.211609 312.340759,296.810974 312.158234,296.412811 
	C311.759033,295.541901 312.447693,294.867767 313.185242,294.437805 
	C317.516968,291.912415 321.862885,289.411377 326.561737,286.838348 
z"/>
<path fill="#D89791" opacity="1.000000" stroke="none" 
	d="
M203.808899,165.209991 
	C206.982666,161.650482 211.268372,161.304703 215.147476,160.109711 
	C216.746704,159.617065 218.446991,160.026474 219.000610,162.505188 
	C219.520920,164.078751 218.862137,164.873428 217.756165,165.840103 
	C214.031342,166.918259 211.310684,169.618790 207.257248,169.585846 
	C205.445923,168.474136 204.205811,167.298645 203.808899,165.209991 
z"/>
<path fill="#D9A39E" opacity="1.000000" stroke="none" 
	d="
M203.583313,164.918091 
	C204.817398,166.170700 207.203293,166.149231 207.021484,168.737427 
	C207.972351,172.758881 205.547302,174.140060 202.433655,175.236816 
	C199.943619,173.458359 198.636612,177.063553 196.252960,175.970978 
	C197.092056,171.474396 199.507568,167.790085 203.583313,164.918091 
z"/>
<path fill="#684F38" opacity="1.000000" stroke="none" 
	d="
M181.650787,228.032333 
	C182.511276,228.256989 183.001205,228.516190 183.748596,228.888596 
	C184.149521,229.205185 184.292984,229.408585 184.148590,229.849731 
	C182.161118,233.157516 176.403763,234.001587 178.953735,239.639709 
	C178.129425,240.102921 177.332428,240.493179 176.858002,241.843063 
	C172.629837,238.709702 173.244614,231.955688 177.835861,229.787231 
	C178.996033,229.239273 180.132751,228.641678 181.650787,228.032333 
z"/>
<path fill="#684F38" opacity="1.000000" stroke="none" 
	d="
M309.210693,229.995361 
	C308.426453,228.591202 308.502411,227.512100 310.217072,226.792221 
	C312.079773,227.657684 313.541077,228.691681 315.116852,229.503464 
	C321.588776,232.837646 322.491150,237.292908 317.430298,243.143845 
	C317.574829,241.681915 318.239807,240.215729 318.566101,238.677689 
	C318.804260,237.554932 320.139557,235.733963 317.193115,235.833740 
	C314.208160,234.439133 312.803711,231.120407 309.210693,229.995361 
z"/>
<path fill="#D89791" opacity="1.000000" stroke="none" 
	d="
M258.920166,158.075348 
	C258.830811,156.206848 259.712097,154.949768 261.768280,154.109222 
	C264.988434,154.227356 267.018188,156.531967 269.891052,157.529602 
	C271.239563,160.384750 269.705841,161.455856 267.266602,162.152893 
	C264.390625,162.719467 263.280579,160.165649 261.137024,159.394150 
	C260.587585,158.570953 259.979340,158.508072 259.154236,158.209503 
	C258.890198,158.073792 258.937012,158.055450 258.920166,158.075348 
z"/>
<path fill="#D79C97" opacity="1.000000" stroke="none" 
	d="
M267.382874,221.911499 
	C267.095062,221.708023 267.153595,221.509628 267.281067,221.442917 
	C275.539185,217.120560 277.769104,210.429108 275.043823,201.347748 
	C281.192230,210.287781 278.109131,219.185867 267.382874,221.911499 
z"/>
<path fill="#D9A39E" opacity="1.000000" stroke="none" 
	d="
M292.087036,146.592667 
	C289.698883,147.691254 287.582123,148.876495 286.407166,151.724518 
	C285.980804,149.441788 283.713074,148.002304 282.906036,145.417572 
	C284.604919,145.966125 285.836304,144.076279 287.645386,144.639313 
	C287.010864,142.659134 286.521790,141.132782 286.031708,139.249283 
	C288.574829,140.891617 291.129517,142.882523 292.087036,146.592667 
z"/>
<path fill="#D9A39E" opacity="1.000000" stroke="none" 
	d="
M267.393555,251.094772 
	C266.836029,252.370850 265.411926,252.050766 264.134857,252.041885 
	C252.344162,251.960068 240.553802,251.829742 228.465881,251.435394 
	C241.091278,251.117493 254.014160,251.077713 267.393555,251.094772 
z"/>
<path fill="#D9A39E" opacity="1.000000" stroke="none" 
	d="
M266.997467,162.378418 
	C267.877808,160.868896 268.897705,159.692276 269.980530,158.181992 
	C271.802490,158.150665 273.337280,159.465820 275.652283,159.086761 
	C276.222565,159.306534 276.405914,159.443680 276.300537,159.766876 
	C273.684113,161.032257 272.975128,162.745514 273.995728,165.476562 
	C271.717468,164.784882 269.427216,163.748077 266.997467,162.378418 
z"/>
<path fill="#D9A39E" opacity="1.000000" stroke="none" 
	d="
M213.184174,244.079926 
	C212.969391,242.805771 212.980194,241.839508 212.986084,240.510956 
	C215.794754,241.027664 218.640411,241.819565 221.403091,242.836807 
	C222.274872,243.157791 224.170410,242.321609 223.888794,244.204193 
	C223.672150,245.652390 222.249939,246.138367 220.826904,245.908875 
	C220.073318,245.787338 219.362717,245.399216 218.276947,244.979675 
	C216.467407,244.168564 214.896606,244.708511 213.184174,244.079926 
z"/>
<path fill="#D9A39E" opacity="1.000000" stroke="none" 
	d="
M265.975403,132.364624 
	C270.279510,132.311172 275.682190,136.075974 276.035522,139.499130 
	C272.066376,138.316483 269.145630,135.424240 265.975403,132.364624 
z"/>
<path fill="#D9A39E" opacity="1.000000" stroke="none" 
	d="
M231.784546,106.224380 
	C233.478394,106.006165 234.435074,104.976974 235.838699,104.087326 
	C237.064056,103.907425 237.380280,104.459702 237.226257,105.589676 
	C237.373215,107.846672 235.740707,108.957573 235.014221,110.843307 
	C234.295578,109.973480 232.134598,110.671860 231.937805,108.509605 
	C231.825058,107.986748 231.733414,107.806480 231.578415,107.329498 
	C231.529724,106.830971 231.544357,106.629181 231.784546,106.224380 
z"/>
<path fill="#D79C97" opacity="1.000000" stroke="none" 
	d="
M248.647751,241.871460 
	C248.999023,242.842911 249.000107,243.527908 249.000305,244.555389 
	C248.342819,245.678436 247.456268,245.452789 246.251541,245.223785 
	C245.714218,244.994537 245.544174,244.983383 245.134552,244.883087 
	C243.486877,244.227219 242.026932,244.571671 240.304504,244.678833 
	C239.032715,242.624802 239.403488,242.294434 243.527054,242.010391 
	C245.291092,241.094910 246.821045,241.619614 248.647751,241.871460 
z"/>
<path fill="#D79C97" opacity="1.000000" stroke="none" 
	d="
M245.102600,218.381836 
	C249.576691,218.617706 254.377121,218.580246 258.736786,221.611923 
	C254.030014,222.500031 249.787720,220.030441 245.102600,218.381836 
z"/>
<path fill="#D89791" opacity="1.000000" stroke="none" 
	d="
M237.240906,330.397583 
	C243.707352,330.024506 250.378128,330.032043 257.515991,330.020142 
	C251.199661,331.911011 244.292007,330.540558 237.240906,330.397583 
z"/>
<path fill="#D9A39E" opacity="1.000000" stroke="none" 
	d="
M281.000854,134.626373 
	C276.952240,135.159088 273.250488,134.537704 272.071533,129.257843 
	C275.013672,130.681549 277.940521,132.486557 281.000854,134.626373 
z"/>
<path fill="#F4D8CD" opacity="1.000000" stroke="none" 
	d="
M246.069885,245.414520 
	C246.663040,244.979721 247.441803,244.953781 248.609985,244.912857 
	C254.063019,244.914673 259.126617,244.931473 264.665649,244.982605 
	C258.925079,247.140152 252.554703,245.648926 246.069885,245.414520 
z"/>
<path fill="#F4D8CD" opacity="1.000000" stroke="none" 
	d="
M236.195770,258.453033 
	C242.145798,258.101013 248.279175,258.144440 254.629272,258.545837 
	C248.690369,258.885376 242.534744,258.866913 236.195770,258.453033 
z"/>
<path fill="#D9A39E" opacity="1.000000" stroke="none" 
	d="
M216.695770,165.371460 
	C217.517151,164.500443 218.139160,163.971848 218.900024,163.163788 
	C220.307526,163.772705 221.808182,164.455368 222.103546,166.603119 
	C220.911407,166.998459 220.152512,167.851440 219.104965,168.883911 
	C216.708847,168.883514 216.304276,167.505249 216.695770,165.371460 
z"/>
<path fill="#D9A39E" opacity="1.000000" stroke="none" 
	d="
M184.014862,230.387238 
	C183.896637,229.908081 183.932495,229.728699 183.987213,229.275543 
	C187.094879,230.292206 189.465088,232.325974 190.848572,235.827423 
	C187.683792,235.595322 186.514542,232.409622 184.014862,230.387238 
z"/>
<path fill="#F4D8CD" opacity="1.000000" stroke="none" 
	d="
M253.396271,323.078949 
	C249.669983,325.025391 245.274155,323.545685 240.545471,323.974091 
	C244.233704,321.763885 248.674957,323.539581 253.396271,323.078949 
z"/>
<path fill="#D9A39E" opacity="1.000000" stroke="none" 
	d="
M196.007385,239.386673 
	C198.741272,238.917725 201.597061,238.888367 203.815613,241.776367 
	C201.166840,241.987671 198.741241,240.600662 196.007385,239.386673 
z"/>
<path fill="#D9A39E" opacity="1.000000" stroke="none" 
	d="
M286.103943,154.387390 
	C287.628662,157.511475 286.942596,159.763840 282.365967,159.995819 
	C281.799652,159.850311 281.617401,159.708588 281.704590,159.349335 
	C283.967743,158.262238 285.466217,156.935516 286.103943,154.387390 
z"/>
<path fill="#F4D8CD" opacity="1.000000" stroke="none" 
	d="
M338.768127,243.594696 
	C335.593445,244.006668 332.236359,244.035904 328.420166,244.044647 
	C331.359619,241.882965 335.040405,243.433670 338.768127,243.594696 
z"/>
<path fill="#D79C97" opacity="1.000000" stroke="none" 
	d="
M227.797043,94.370041 
	C229.934250,96.906029 228.629135,100.145523 228.935638,103.673157 
	C227.224289,103.001488 228.267395,101.278526 227.964478,99.457489 
	C227.160263,97.686928 227.600052,96.196220 227.797043,94.370041 
z"/>
<path fill="#D89791" opacity="1.000000" stroke="none" 
	d="
M224.228516,257.390778 
	C227.024765,257.176758 229.997253,257.339661 233.322296,257.610718 
	C230.584824,257.735138 227.494812,257.751434 224.228516,257.390778 
z"/>
<path fill="#D79C97" opacity="1.000000" stroke="none" 
	d="
M262.982788,190.630905 
	C261.165283,190.991776 259.323517,190.748169 258.084961,188.530746 
	C260.094788,187.783127 261.462891,189.055176 262.982788,190.630905 
z"/>
<path fill="#F4D8CD" opacity="1.000000" stroke="none" 
	d="
M265.381165,99.880890 
	C265.016174,97.651955 265.026672,95.247055 265.032074,92.392151 
	C267.013947,94.365822 265.705017,97.099319 265.381165,99.880890 
z"/>
<path fill="#F4D8CD" opacity="1.000000" stroke="none" 
	d="
M266.532104,244.866180 
	C268.370209,243.487701 270.866089,244.362183 273.657288,244.026505 
	C271.912201,245.935852 269.319550,244.545807 266.532104,244.866180 
z"/>
<path fill="#D79C97" opacity="1.000000" stroke="none" 
	d="
M229.570084,87.023491 
	C229.985016,88.566696 230.277740,90.308449 228.432938,91.786041 
	C227.814804,90.224800 227.656738,88.500481 229.570084,87.023491 
z"/>
<path fill="#F4D8CD" opacity="1.000000" stroke="none" 
	d="
M293.386841,156.947968 
	C293.117554,154.954147 293.240173,152.806473 293.618408,150.367401 
	C293.842255,152.315353 293.810516,154.554733 293.386841,156.947968 
z"/>
<path fill="#D79C97" opacity="1.000000" stroke="none" 
	d="
M244.985962,182.623993 
	C243.705933,182.841202 242.028488,183.497360 241.119202,181.278900 
	C242.471024,180.941376 243.956787,180.793106 244.985962,182.623993 
z"/>
<path fill="#D89791" opacity="1.000000" stroke="none" 
	d="
M263.620056,257.823853 
	C265.091705,256.704010 267.181366,257.394073 269.545959,257.047699 
	C268.194641,258.883972 265.983582,257.481354 263.620056,257.823853 
z"/>
<path fill="#F4D8CD" opacity="1.000000" stroke="none" 
	d="
M249.275848,242.093170 
	C247.581909,242.115570 246.165863,242.073212 244.324020,242.018021 
	C245.677521,239.788177 248.079605,241.528488 250.552185,241.092224 
	C250.501801,241.449310 250.027771,241.738861 249.275848,242.093170 
z"/>
<path fill="#F4D8CD" opacity="1.000000" stroke="none" 
	d="
M270.487122,239.144806 
	C268.867004,240.208237 266.742249,240.110367 264.325104,239.411591 
	C266.059570,239.139725 268.060822,239.113754 270.487122,239.144806 
z"/>
<path fill="#F4D8CD" opacity="1.000000" stroke="none" 
	d="
M281.552979,159.067932 
	C281.974060,159.131790 282.008179,159.561691 281.995056,159.776855 
	C280.276215,159.984375 278.570496,159.976730 276.438293,159.960999 
	C276.011810,159.952911 276.029846,159.561295 276.034515,159.365326 
	C277.736755,159.114273 279.434296,159.059174 281.552979,159.067932 
z"/>
<path fill="#D9A39E" opacity="1.000000" stroke="none" 
	d="
M286.377625,165.075439 
	C286.257263,162.994186 287.790283,162.981812 289.747345,163.072586 
	C289.257904,164.216904 288.009003,164.661087 286.377625,165.075439 
z"/>
<path fill="#684F38" opacity="1.000000" stroke="none" 
	d="
M190.770172,299.568787 
	C192.358749,299.063538 192.935852,299.934540 192.965393,301.730408 
	C191.481323,302.129150 190.914627,301.234467 190.770172,299.568787 
z"/>
<path fill="#F4D8CD" opacity="1.000000" stroke="none" 
	d="
M227.996277,93.723854 
	C227.992645,95.402405 227.959167,96.812584 227.940613,98.644783 
	C226.198471,97.314919 227.190094,95.251869 227.647919,93.102325 
	C227.985092,93.095947 227.975754,93.275719 227.996277,93.723854 
z"/>
<path fill="#D79C97" opacity="1.000000" stroke="none" 
	d="
M256.948792,187.642700 
	C255.715988,187.849258 254.141129,188.457581 253.097107,186.520264 
	C254.615005,185.377686 255.455536,187.230392 256.948792,187.642700 
z"/>
<path fill="#D9A39E" opacity="1.000000" stroke="none" 
	d="
M284.448456,249.099899 
	C283.358826,250.670456 281.456360,249.741806 279.362518,250.006104 
	C280.347290,248.007629 282.360901,249.396774 284.448456,249.099899 
z"/>
<path fill="#D9A39E" opacity="1.000000" stroke="none" 
	d="
M215.751907,249.628006 
	C214.111374,249.908463 212.343750,249.817459 210.354675,249.425491 
	C211.963760,249.168533 213.794296,249.212540 215.751907,249.628006 
z"/>
<path fill="#F4D8CD" opacity="1.000000" stroke="none" 
	d="
M212.678726,243.835403 
	C214.423294,243.974167 215.887985,244.176315 217.636932,244.603195 
	C216.007751,244.806458 214.094299,244.784988 212.008392,244.387177 
	C212.023590,243.973495 212.211227,243.936142 212.678726,243.835403 
z"/>
<path fill="#F4D8CD" opacity="1.000000" stroke="none" 
	d="
M264.602478,221.726868 
	C265.168671,221.914627 265.361237,221.929184 265.842377,221.971252 
	C264.363037,223.964432 262.189850,222.737289 260.013123,222.378265 
	C260.045990,221.983673 260.240387,221.965729 260.727234,221.931610 
	C262.031525,221.281693 263.145721,221.555511 264.602478,221.726868 
z"/>
<path fill="#D9A39E" opacity="1.000000" stroke="none" 
	d="
M215.130814,256.361816 
	C216.474869,256.096375 217.945404,256.197937 219.643860,256.586121 
	C218.333603,256.824768 216.795456,256.776794 215.130814,256.361816 
z"/>
<path fill="#D9A39E" opacity="1.000000" stroke="none" 
	d="
M275.486481,256.934082 
	C276.248169,255.443848 277.866913,256.089478 279.696442,255.980835 
	C279.064026,257.986267 277.292450,256.705200 275.486481,256.934082 
z"/>
<path fill="#D79C97" opacity="1.000000" stroke="none" 
	d="
M275.050232,200.611832 
	C273.631348,200.864532 273.028290,200.021759 273.028351,198.280533 
	C274.042572,198.409149 275.008575,198.938400 275.050232,200.611832 
z"/>
<path fill="#D89791" opacity="1.000000" stroke="none" 
	d="
M175.087769,259.493103 
	C176.452621,260.271271 175.727982,261.843689 175.956757,263.602417 
	C174.174347,262.944061 175.386078,261.238342 175.087769,259.493103 
z"/>
<path fill="#F4D8CD" opacity="1.000000" stroke="none" 
	d="
M240.424957,244.877197 
	C241.395462,243.837753 242.871613,244.007889 244.632202,244.607437 
	C243.539581,244.844498 242.184204,244.895065 240.424957,244.877197 
z"/>
<path fill="#D79C97" opacity="1.000000" stroke="none" 
	d="
M267.016602,192.627930 
	C266.009918,192.940216 264.796448,193.142242 264.082642,191.478394 
	C265.360107,190.525742 266.107971,191.460266 267.016602,192.627930 
z"/>
<path fill="#F4D8CD" opacity="1.000000" stroke="none" 
	d="
M316.383484,209.973099 
	C315.998077,208.664551 315.982178,207.214142 315.987762,205.328323 
	C318.032990,206.271561 316.760925,208.146606 316.383484,209.973099 
z"/>
<path fill="#F4D8CD" opacity="1.000000" stroke="none" 
	d="
M261.551636,240.131317 
	C260.659271,241.210297 259.158356,240.855774 257.355255,240.920746 
	C258.076752,239.201279 259.777496,240.365219 261.551636,240.131317 
z"/>
<path fill="#F4D8CD" opacity="1.000000" stroke="none" 
	d="
M265.090698,120.186562 
	C265.124847,118.882172 265.259186,117.760971 265.592163,116.366722 
	C265.844635,117.437851 265.898468,118.782036 265.879730,120.524513 
	C265.555603,120.789871 265.350159,120.605515 265.090698,120.186562 
z"/>
<path fill="#D79C97" opacity="1.000000" stroke="none" 
	d="
M272.862610,196.661987 
	C271.717896,196.951599 270.532928,196.997604 270.086182,195.224091 
	C271.272919,194.794388 272.168091,195.370773 272.862610,196.661987 
z"/>
<path fill="#684F38" opacity="1.000000" stroke="none" 
	d="
M188.889679,297.424072 
	C189.845566,297.115784 190.639359,297.403137 190.795456,298.873627 
	C189.749939,299.253296 189.049057,298.871368 188.889679,297.424072 
z"/>
<path fill="#D79C97" opacity="1.000000" stroke="none" 
	d="
M231.809723,105.787552 
	C232.010117,106.021370 232.003906,106.512604 231.998993,106.758194 
	C231.815887,107.140846 231.637695,107.277916 231.176849,107.231018 
	C230.596069,106.588089 230.297928,106.129120 229.932800,105.379364 
	C230.446991,105.243637 231.028168,105.398689 231.809723,105.787552 
z"/>
<path fill="#D9A39E" opacity="1.000000" stroke="none" 
	d="
M192.066010,229.583069 
	C191.167068,229.882950 190.386520,229.602249 190.089630,228.239426 
	C190.885712,228.077774 192.132675,227.627975 192.066010,229.583069 
z"/>
<path fill="#D79C97" opacity="1.000000" stroke="none" 
	d="
M243.319000,217.887161 
	C243.136917,217.210098 243.275864,216.494400 244.057266,216.576477 
	C244.366516,216.608978 244.618454,217.187164 244.926300,217.797577 
	C244.517944,218.037766 244.079819,217.997269 243.319000,217.887161 
z"/>
<path fill="#684F38" opacity="1.000000" stroke="none" 
	d="
M277.613464,249.953949 
	C276.980255,251.212372 275.770935,251.208633 274.237915,250.288773 
	C275.080505,249.998764 276.147614,249.949326 277.613464,249.953949 
z"/>
<path fill="#D9A39E" opacity="1.000000" stroke="none" 
	d="
M291.431671,160.985260 
	C291.259918,160.249924 291.410797,159.359528 291.822998,158.242813 
	C291.974335,158.954407 291.864319,159.892288 291.431671,160.985260 
z"/>
<path fill="#D9A39E" opacity="1.000000" stroke="none" 
	d="
M281.073517,144.355469 
	C281.943420,143.126709 282.345398,143.947922 282.863190,144.908386 
	C282.358154,144.982697 281.771545,144.813644 281.073517,144.355469 
z"/>
<path fill="#D9A39E" opacity="1.000000" stroke="none" 
	d="
M209.042267,238.641922 
	C208.601898,238.820480 208.025055,238.695114 207.233093,238.360123 
	C207.647232,238.212982 208.276505,238.275497 209.042267,238.641922 
z"/>
<path fill="#684F38" opacity="1.000000" stroke="none" 
	d="
M193.135162,292.608093 
	C192.761856,292.477356 192.425323,292.014893 192.099319,291.250244 
	C192.958740,290.995148 193.176376,291.546967 193.135162,292.608093 
z"/>
<path fill="#D9A39E" opacity="1.000000" stroke="none" 
	d="
M290.399994,162.999817 
	C290.288239,162.548187 290.466797,161.963394 290.917114,161.210678 
	C291.022705,161.650726 290.856506,162.258698 290.399994,162.999817 
z"/>
<path fill="#684F38" opacity="1.000000" stroke="none" 
	d="
M314.698364,260.065979 
	C314.835297,260.481079 314.689148,261.022369 314.334412,261.756378 
	C314.222260,261.363464 314.318756,260.777802 314.698364,260.065979 
z"/>
<path fill="#D9A39E" opacity="1.000000" stroke="none" 
	d="
M259.035706,158.353210 
	C259.464508,158.246979 260.038849,158.420181 260.798309,158.838593 
	C260.382690,158.933426 259.781952,158.783020 259.035706,158.353210 
z"/>
<path fill="#674A2F" opacity="1.000000" stroke="none" 
	d="
M311.455811,290.257202 
	C311.555786,289.796448 311.967010,289.434875 312.666229,289.037781 
	C312.558502,289.453644 312.162811,289.904999 311.455811,290.257202 
z"/>
<path fill="#D9A39E" opacity="1.000000" stroke="none" 
	d="
M192.343262,206.061554 
	C192.522171,205.769897 193.017365,205.437943 193.825287,205.098206 
	C193.885498,205.782425 193.345871,206.018372 192.343262,206.061554 
z"/>
<path fill="#D9A39E" opacity="1.000000" stroke="none" 
	d="
M209.347839,243.904938 
	C209.476120,243.269043 209.989334,243.009140 210.816406,243.668762 
	C210.539764,243.891296 210.104538,243.934723 209.347839,243.904938 
z"/>
<path fill="#684F38" opacity="1.000000" stroke="none" 
	d="
M176.785156,242.384796 
	C177.220154,242.541092 177.566315,243.011658 177.918991,243.791595 
	C177.515793,243.633682 177.106049,243.166382 176.785156,242.384796 
z"/>
<path fill="#D79C97" opacity="1.000000" stroke="none" 
	d="
M264.282684,103.987877 
	C264.099670,103.770729 264.235413,103.514183 264.615723,103.158432 
	C264.700806,103.316887 264.614502,103.613304 264.282684,103.987877 
z"/>
<path fill="#D79C97" opacity="1.000000" stroke="none" 
	d="
M241.012741,180.698090 
	C240.778076,180.885239 240.515991,180.739578 240.152512,180.345367 
	C240.323517,180.256500 240.634903,180.345993 241.012741,180.698090 
z"/>
<path fill="#684F38" opacity="1.000000" stroke="none" 
	d="
M199.906021,302.755188 
	C199.676910,302.860107 199.431839,302.657623 199.122452,302.181946 
	C199.284027,302.150665 199.561340,302.330353 199.906021,302.755188 
z"/>
<path fill="#684F38" opacity="1.000000" stroke="none" 
	d="
M198.997070,300.725037 
	C198.680313,300.878387 198.433212,300.669220 198.154160,300.156616 
	C198.371063,300.100861 198.685913,300.270630 198.997070,300.725037 
z"/>
<path fill="#684F38" opacity="1.000000" stroke="none" 
	d="
M198.006973,299.676392 
	C197.789749,299.723175 197.519821,299.494141 197.155121,299.012085 
	C197.358307,298.972870 197.656296,299.186737 198.006973,299.676392 
z"/>
<path fill="#D9A39E" opacity="1.000000" stroke="none" 
	d="
M211.050201,239.694519 
	C210.810379,239.879242 210.526657,239.725418 210.137482,239.304199 
	C210.318954,239.212921 210.643707,239.319305 211.050201,239.694519 
z"/>
<path fill="#D9A39E" opacity="1.000000" stroke="none" 
	d="
M195.088379,231.670654 
	C194.891159,231.794937 194.590912,231.651840 194.138977,231.307465 
	C194.319962,231.205231 194.652649,231.304260 195.088379,231.670654 
z"/>
<path fill="#684F38" opacity="1.000000" stroke="none" 
	d="
M196.017426,296.724731 
	C195.769058,296.757355 195.506989,296.488373 195.168457,295.942444 
	C195.395889,295.918030 195.699799,296.170563 196.017426,296.724731 
z"/>
<path fill="#684F38" opacity="1.000000" stroke="none" 
	d="
M194.062210,293.749847 
	C193.809723,293.834534 193.541779,293.622345 193.165863,293.174316 
	C193.387512,293.109985 193.717148,293.281464 194.062210,293.749847 
z"/>
<path fill="#D9A39E" opacity="1.000000" stroke="none" 
	d="
M193.025024,230.711258 
	C192.844208,230.759186 192.565567,230.553162 192.157074,230.118179 
	C192.327209,230.078583 192.627213,230.267944 193.025024,230.711258 
z"/>
<path fill="#D89791" opacity="1.000000" stroke="none" 
	d="
M230.959686,107.312820 
	C231.077454,107.035286 231.260681,107.023521 231.718994,107.007767 
	C231.989151,107.198097 231.984207,107.392418 231.947998,107.876877 
	C231.619522,107.970879 231.322327,107.774734 230.959686,107.312820 
z"/>
<path fill="#684F38" opacity="1.000000" stroke="none" 
	d="
M314.961243,282.744598 
	C314.768921,282.779358 314.645996,282.599152 314.574249,282.400421 
	C314.557892,282.355072 314.718384,282.245911 314.960236,282.108826 
	C315.122986,282.051575 315.049194,282.522888 314.961243,282.744598 
z"/>
<path fill="#684F38" opacity="1.000000" stroke="none" 
	d="
M178.010895,244.259476 
	C178.210983,244.123627 178.471115,244.277390 178.823639,244.683807 
	C178.594070,244.914703 178.312378,244.785583 178.010895,244.259476 
z"/>
<path fill="#D79C97" opacity="1.000000" stroke="none" 
	d="
M247.031418,183.705063 
	C246.804352,183.886093 246.534164,183.737411 246.158020,183.334335 
	C246.324600,183.250244 246.636688,183.348709 247.031418,183.705063 
z"/>
<path fill="#D79C97" opacity="1.000000" stroke="none" 
	d="
M263.915222,104.745682 
	C263.520050,104.718498 263.492004,104.446274 263.912842,104.097260 
	C264.067535,104.033318 263.988129,104.513496 263.915222,104.745682 
z"/>
<path fill="#D9A39E" opacity="1.000000" stroke="none" 
	d="
M272.050293,128.672943 
	C271.812561,128.872421 271.530090,128.730194 271.143677,128.319519 
	C271.323425,128.220352 271.645355,128.313751 272.050293,128.672943 
z"/>
<path fill="#D79C97" opacity="1.000000" stroke="none" 
	d="
M228.940216,104.325096 
	C229.143082,104.262306 229.426407,104.464691 229.826645,104.905014 
	C229.635925,104.958725 229.328293,104.774498 228.940216,104.325096 
z"/>
<path fill="#D9A39E" opacity="1.000000" stroke="none" 
	d="
M189.999939,227.721161 
	C189.821396,227.770554 189.550430,227.568176 189.148148,227.146301 
	C189.313721,227.107666 189.610626,227.288528 189.999939,227.721161 
z"/>
<path fill="#000000" opacity="1.000000" stroke="none" 
	d="
M216.518219,165.015579 
	C217.338287,166.269287 217.781433,167.509506 218.524689,168.913330 
	C222.982407,176.000732 229.546097,180.108078 236.652863,183.924286 
	C237.012192,183.848267 237.441284,183.970352 237.661438,184.006180 
	C240.382217,185.287857 242.928146,186.435989 245.717392,187.825623 
	C245.952057,188.085785 245.988083,188.013214 245.952820,188.033142 
	C246.983536,188.784103 248.259216,189.024857 249.701996,189.682648 
	C249.990143,189.816696 250.424744,189.965836 250.651154,190.004822 
	C255.876953,192.669846 261.589325,194.049301 265.772583,198.749725 
	C265.970978,199.050201 265.994568,198.997284 265.971100,199.014343 
	C268.502167,200.036148 269.777893,202.118011 270.774017,204.872131 
	C271.115723,214.311020 266.146393,218.399857 257.494751,215.733231 
	C249.142471,213.158844 241.125031,209.686340 233.248398,205.834671 
	C225.488174,202.039917 217.574707,198.472015 208.537659,196.985291 
	C207.971313,196.685257 207.836731,196.221420 207.623550,196.181946 
	C200.067871,194.782608 200.066833,194.788193 199.955048,186.470215 
	C199.964355,182.547348 200.265762,179.092377 202.013702,175.544952 
	C204.370239,173.996384 205.164932,171.416443 207.030823,169.456482 
	C210.388107,168.418961 212.558472,165.142349 216.518219,165.015579 
z"/>
<path fill="#D79C97" opacity="1.000000" stroke="none" 
	d="
M265.969299,198.671600 
	C261.029510,196.272766 256.088074,193.495331 251.012085,190.380844 
	C256.796539,191.167374 262.294189,193.061691 265.969299,198.671600 
z"/>
<path fill="#D79C97" opacity="1.000000" stroke="none" 
	d="
M245.892151,187.735748 
	C242.902267,187.991821 240.528931,186.333191 238.011200,184.375366 
	C240.926163,184.218857 243.662018,185.129807 245.892151,187.735748 
z"/>
<path fill="#D79C97" opacity="1.000000" stroke="none" 
	d="
M270.942261,204.786560 
	C269.360474,203.332108 267.786163,201.490707 266.079773,199.340347 
	C269.740417,198.840332 270.588440,201.393204 270.942261,204.786560 
z"/>
<path fill="#D79C97" opacity="1.000000" stroke="none" 
	d="
M249.797394,189.540741 
	C248.515274,190.172287 247.163269,190.110916 246.062927,188.377670 
	C247.308563,187.964096 248.646652,188.036194 249.797394,189.540741 
z"/>
<path fill="#D79C97" opacity="1.000000" stroke="none" 
	d="
M264.743347,221.681641 
	C263.919128,221.946915 262.862183,221.993744 261.412415,221.978012 
	C262.063690,220.841354 263.243164,220.812805 264.743347,221.681641 
z"/>
<path fill="#000000" opacity="1.000000" stroke="none" 
	d="
M237.372345,106.049019 
	C236.925186,105.319603 236.812683,104.739204 236.419037,104.046432 
	C235.417938,100.884644 234.697968,97.835228 233.899399,94.380707 
	C233.681000,92.773994 233.983398,91.655220 234.664124,90.281982 
	C234.869308,89.995079 234.995560,89.582146 235.024902,89.368286 
	C237.011139,87.299950 238.789566,85.195145 240.963593,83.645241 
	C244.987457,80.776535 246.592285,81.741104 247.071518,86.641373 
	C247.266129,88.631203 245.518982,92.289062 248.678772,92.218323 
	C251.622971,92.152405 251.147629,88.436653 250.927673,86.010933 
	C250.562973,81.988617 251.818542,81.614433 255.135208,83.532448 
	C260.620300,86.704453 263.035645,91.800369 261.981995,99.493782 
	C259.410858,102.704185 258.093506,106.675598 254.047440,108.533287 
	C253.495926,108.915405 253.067780,108.973366 252.318726,109.087090 
	C251.755814,109.245857 251.513824,109.348862 250.877884,109.471527 
	C248.906662,109.483971 247.328903,109.534744 245.389771,109.294662 
	C242.408371,108.603760 239.630905,108.463043 237.372345,106.049019 
z"/>
<path fill="#F4D8CD" opacity="1.000000" stroke="none" 
	d="
M245.302780,109.390648 
	C246.731033,109.101784 248.434860,109.064301 250.560272,109.087189 
	C251.098969,109.297096 251.216095,109.446632 251.109863,109.773041 
	C249.117126,109.847290 247.347748,109.744652 245.302780,109.390648 
z"/>
<path fill="#D9A39E" opacity="1.000000" stroke="none" 
	d="
M251.111877,109.876976 
	C250.886520,109.949928 250.966248,109.552551 250.974045,109.350060 
	C251.150894,109.098404 251.319931,109.049248 251.743393,109.071472 
	C251.845352,109.430885 251.625153,109.651276 251.111877,109.876976 
z"/>
<path fill="#D79C97" opacity="1.000000" stroke="none" 
	d="
M234.556793,90.075455 
	C235.035858,91.196480 235.206940,92.398888 233.974960,93.649582 
	C232.829437,92.576797 232.501694,91.251556 234.556793,90.075455 
z"/>
</svg>